
        <svg width="400px" height="400px" viewBox="0 0 400 400" version="1.1" xmlns="http://www.w3.org/2000/svg" xmlns:xlink="http://www.w3.org/1999/xlink">
          <defs>
            <linearGradient x1="0%" y1="50%" x2="100%" y2="50%" id="shadeGradientLight">
              <stop stop-color="#dfe0e1" offset="0%"></stop>
              <stop stop-color="#bfc3c4" offset="16.67%"></stop>
              <stop stop-color="#a0a5a7" offset="33.33%"></stop>
              <stop stop-color="#808789" offset="50%"></stop>
              <stop stop-color="#61696c" offset="66.67%"></stop>
              <stop stop-color="#414c4f" offset="83.33%"></stop>
              <stop stop-color="#222e32" offset="100%"></stop>
            </linearGradient>
            <linearGradient x1="0%" y1="50%" x2="100%" y2="50%" id="shadeGradientDark">
              <stop stop-color="#414b4f" offset="0%"></stop>
              <stop stop-color="#60696c" offset="16.67%"></stop>
              <stop stop-color="#7f8689" offset="33.33%"></stop>
              <stop stop-color="#9fa4a6" offset="50%"></stop>
              <stop stop-color="#bec1c3" offset="66.67%"></stop>
              <stop stop-color="#dddfe0" offset="83.33%"></stop>
              <stop stop-color="#fcfcfd" offset="100%"></stop>
            </linearGradient>
          </defs>
          <g id="light">
            <rect fill="#fefefe" x="0" y="0" width="400" height="200"></rect>
            <rect fill="#ff5d73" x="28" y="28" width="74" height="37"></rect>
            <rect fill="#1d99f3" x="118" y="28" width="74" height="37"></rect>
            <rect fill="#f39c12" x="208" y="28" width="74" height="37"></rect>
            <rect fill="#8ab319" x="298" y="28" width="74" height="37"></rect>
            <rect fill="#789494" x="28" y="81" width="74" height="37"></rect>
            <rect fill="#9bbfbf" x="118" y="81" width="74" height="37"></rect>
            <rect fill="#9bbfbf" x="208" y="81" width="74" height="37"></rect>
            <rect fill="#b269e2" x="298" y="81" width="74" height="37"></rect>
            <rect fill="url(#shadeGradientLight)" x="28" y="134" width="344" height="37"></rect>
          </g>
          <g id="dark" transform="translate(0.000000, 200.000000)">
            <rect fill="#222e32" x="0" y="0" width="400" height="200"></rect>
            <rect fill="#eb606b" x="28" y="28" width="74" height="37"></rect>
            <rect fill="#1d99f3" x="118" y="28" width="74" height="37"></rect>
            <rect fill="#f39c12" x="208" y="28" width="74" height="37"></rect>
            <rect fill="#b3e235" x="298" y="28" width="74" height="37"></rect>
            <rect fill="#9bbfbf" x="28" y="81" width="74" height="37"></rect>
            <rect fill="#789494" x="118" y="81" width="74" height="37"></rect>
            <rect fill="#789494" x="208" y="81" width="74" height="37"></rect>
            <rect fill="#c792ea" x="298" y="81" width="74" height="37"></rect>
            <rect fill="url(#shadeGradientDark)" x="28" y="134" width="344" height="37"></rect>
          </g>
        </svg>
      